<?xml version="1.0" encoding="UTF-8"?>
<svg id="Layer_1" data-name="Layer 1" xmlns="http://www.w3.org/2000/svg" width="26" height="26" viewBox="0 0 26 26">
  <g id="Bell">
    <path d="M23.6,14.79l-.33-.71c-.55-1.18-.83-2.47-.83-3.78v-1.62c0-3.27-1.9-6.25-4.87-7.62l-.25-.12c-2.83-1.31-6.11-1.26-8.91.13-2.78,1.38-4.54,4.22-4.54,7.33v1.64c0,1.45-.36,2.89-1.05,4.16l-.28.52c-1.73,3.19.16,7.13,3.73,7.79.67.12,1.34.22,2.02.31.06.32.16.63.32.93.25.47.62.89,1.06,1.22.44.34.94.6,1.49.77.54.17,1.12.26,1.7.26s1.16-.09,1.7-.26,1.05-.43,1.49-.77c.44-.34.8-.75,1.06-1.22.16-.29.25-.61.32-.93.67-.09,1.35-.18,2.02-.31l.2-.04c3.52-.65,5.48-4.44,3.97-7.69h-.02ZM14.9,23.5c-.25.19-.56.36-.92.47-.36.11-.74.17-1.14.17s-.78-.06-1.14-.17c-.36-.11-.67-.28-.92-.47-.19-.15-.33-.31-.45-.48,1.67.12,3.35.12,5.02,0-.11.17-.25.33-.45.48ZM19.29,20.65l-.2.04c-4.13.76-8.36.76-12.49,0-2.33-.43-3.56-3-2.43-5.08l.28-.52c.84-1.55,1.28-3.29,1.28-5.05v-1.64c0-2.4,1.36-4.6,3.51-5.66,2.29-1.14,4.98-1.18,7.3-.11l.25.12c2.31,1.07,3.79,3.38,3.79,5.93v1.62c0,1.57.34,3.13,1.01,4.56l.33.71c.99,2.14-.3,4.65-2.63,5.08Z" fill-rule="evenodd"/>
    <path d="M8.97,16.1c0-.51.42-.93.93-.93h6.19c.51,0,.93.42.93.93s-.42.93-.93.93h-6.19c-.51,0-.93-.42-.93-.93Z" fill-rule="evenodd"/>
  </g>
</svg>