<?xml version="1.0" encoding="UTF-8"?>
<svg id="Layer_1" data-name="Layer 1" xmlns="http://www.w3.org/2000/svg" width="26" height="26" viewBox="0 0 26 26">
  <g id="Bell">
    <path d="M16.04,22.59c.75-.08,1.26.72.9,1.36-.25.45-.6.85-1.02,1.17-.43.33-.93.58-1.46.76-.53.17-1.1.26-1.67.26s-1.14-.09-1.67-.26-1.03-.42-1.46-.76c-.42-.32-.77-.72-1.02-1.17-.35-.64.15-1.44.9-1.36.23.02,2.06.2,3.25.2s3.02-.18,3.25-.2Z" fill-rule="evenodd"/>
    <path d="M17.19.9c-2.79-1.24-6.02-1.19-8.77.12-2.74,1.31-4.47,4-4.47,6.93v1.55c0,1.38-.36,2.73-1.04,3.94l-.28.49c-1.7,3.02.16,6.75,3.67,7.37,4.28.76,8.68.76,12.96,0l.2-.03c3.46-.62,5.39-4.21,3.91-7.28l-.32-.67c-.54-1.12-.82-2.34-.82-3.57v-1.54c0-3.1-1.87-5.91-4.8-7.21l-.25-.11h.01ZM9.9,15.5c-.5,0-.91.41-.91.91s.41.91.91.91h6.08c.5,0,.91-.41.91-.91s-.41-.91-.91-.91h-6.08Z" fill-rule="evenodd"/>
  </g>
</svg>