<?xml version="1.0" encoding="UTF-8"?>
<svg id="Layer_1" data-name="Layer 1" xmlns="http://www.w3.org/2000/svg" viewBox="0 0 16 16">
  <defs>
    <style>
      .cls-1 {
        fill: #6e3917;
      }

      .cls-2 {
        fill: #914e24;
      }

      .cls-3 {
        fill: #d9bdaf;
      }

      .cls-4 {
        fill: #5e3110;
      }
    </style>
  </defs>
  <path class="cls-2" d="M6.66,3.5c-.39,0-4.03,1.54-4.03,5.9s3.17,6.56,3.91,6.56,1-.64,1-1.45v-1.53c-2-.57-2.68-3.28-2.68-4.7s2.68-1.53,2.68-1.53v-2.37c0-.43-.49-.88-.88-.88Z"/>
  <path class="cls-4" d="M10.48,8.02c0-.42-1.04-.77-2.33-.77s-2.33.34-2.33.77c0,.34.68.63,1.62.73.06,0,.17.1.17.14v.49c0,.3.24.54.54.54s.54-.24.54-.54v-.49s.1-.13.15-.14c.95-.1,1.63-.39,1.63-.73Z"/>
  <path class="cls-1" d="M4.86,8.33c-.01.06-.02.13-.02.2,0,1.51.7,4.28,2.7,5.07v-.61c-1.98-.57-2.66-3.22-2.68-4.65Z"/>
  <path class="cls-2" d="M9.51,3.5c-.39,0-.88.46-.88.88v2.37s2.68.11,2.68,1.53c0,.1-.01.21-.02.31,0,0,.02-.01.03-.01.53.02.87.48.87.83,0,.69-1.05,1.4-1.4,1.4,0,0,0-.01-.01-.01-.41.99-1.09,1.88-2.15,2.18v1.53c0,.81.26,1.45,1,1.45s3.91-2.2,3.91-6.56-3.64-5.9-4.03-5.9Z"/>
  <path class="cls-1" d="M10.77,11.21c.6-.32,1.41-1.04,1.41-1.75,0,0,0-.01,0-.02,0,.14-.06.28-.13.42,0,0,0,0,0,0,0,.01-.01.03-.02.04,0,0,0,0,0,0-.08.13-.18.25-.29.36h0s0,0,0,0c-.07.07-.14.13-.21.19-.02.01-.03.03-.05.04,0,0,0,0,0,0-.12.09-.25.17-.36.22,0,0,0,0,0,0,0,0-.02,0-.02.01-.12.05-.22.09-.3.09,0,0,0-.01-.01-.01,0,0,0,0,0,.01,0,0,0,0,0,0,0,0,0,0,0,0-.42.98-1.09,1.87-2.14,2.17v.61c1.04-.41,1.72-1.36,2.15-2.39Z"/>
  <path class="cls-3" d="M8.1,3.55c0-.57-.72-.42-.72-1.25s.69-.79,1.2-1.02.46-.47.4-.62c-.06-.16-.28-.32-.53-.21.3-.47,1.19-.55,1.62-.17s.98,1.89-.96,2.47c-.98.26-1,.81-1,.81Z"/>
</svg>