<?xml version="1.0" encoding="UTF-8"?>
<svg id="Layer_1" data-name="Layer 1" xmlns="http://www.w3.org/2000/svg" width="26" height="26" viewBox="0 0 26 26">
  <path d="M18.34,23.67c-1.57.85-3.39,1.33-5.32,1.33-5.88,0-10.65-4.47-10.65-9.98,0-1.51.2-2.92.54-4.23M22.57,19.44c.7-1.33,1.1-2.83,1.1-4.42,0-4.98-2.71-8.87-4.58-10.73-.35-.34-.92-.19-1.12.25-.99,2.25-3.07,5.49-5.71,5.49-1.9-.01-4.14-1.18-2.12-8.13.18-.63-.49-1.13-1-.71-1.32,1.08-2.84,2.67-4.11,4.7" fill="none" stroke="#fff" stroke-linecap="round" stroke-miterlimit="133.33" stroke-width="2"/>
</svg>