<?xml version="1.0" encoding="UTF-8"?>
<svg id="Layer_1" data-name="Layer 1" xmlns="http://www.w3.org/2000/svg" width="26" height="26" viewBox="0 0 26 26">
  <path d="M24.9,13.2v1.8c0,4.7,0,7-1.4,8.5s-3.7,1.5-8.2,1.5h-4.8c-4.5,0-6.8,0-8.2-1.5-1.4-1.5-1.4-3.8-1.4-8.5v-1.8c0-2.8,0-4.2.6-5.3.6-1.1,1.8-1.8,4.1-3.2l2.4-1.5c2.4-1.5,3.6-2.2,5-2.2s2.5.7,5,2.2l2.4,1.5c2.3,1.4,3.4,2.1,4.1,3.2" fill="none" stroke="#fff" stroke-linecap="round" stroke-width="2"/>
  <path d="M17,20.6h-8" fill="none" stroke="#fff" stroke-linecap="round" stroke-width="2"/>
</svg>