<?xml version="1.0" encoding="UTF-8"?>
<svg id="Layer_1" data-name="Layer 1" xmlns="http://www.w3.org/2000/svg" width="26" height="26" viewBox="0 0 26 26">
  <path d="M.06,12.68s-.02.06-.03.1c-.03.11-.04.22-.03.33,0,0,0,0,0,0,.01.11.05.22.1.33.01.03.03.06.05.08.02.03.04.07.06.1l4,5c.35.43.97.5,1.41.16.43-.34.5-.97.16-1.41l-2.7-3.37h15.42s0,0,0,0c.55,0,1-.45,1-1s-.45-1-1-1H3.08s2.7-3.38,2.7-3.38c.35-.43.28-1.06-.16-1.41-.18-.15-.4-.22-.62-.22-.29,0-.58.13-.78.38L.22,12.38s-.01.03-.03.05c-.03.05-.07.09-.09.14-.02.04-.02.07-.03.11Z" fill="#a1a1a1"/>
  <path d="M19.5,16c-2,0-10.5,0-10.5,0v5.59c0,2.43,1.97,4.4,4.4,4.4h8.2c2.43,0,4.4-1.97,4.4-4.4V4.4C26,1.97,24.03,0,21.6,0h-8.2C10.97,0,9,1.97,9,4.4v5.6h10.5c3,0,3,3,3,3,0,0,.02,3-3,3Z" fill="#a1a1a1"/>
</svg>