<?xml version="1.0" encoding="UTF-8"?>
<svg id="Layer_1" data-name="Layer 1" xmlns="http://www.w3.org/2000/svg" width="26" height="26" xmlns:xlink="http://www.w3.org/1999/xlink" viewBox="0 0 26 26">
  <defs>
    <clipPath id="clippath">
      <rect y="0" width="26" height="26" fill="none"/>
    </clipPath>
  </defs>
  <g clip-path="url(#clippath)">
    <g>
      <path d="M4,10h-2c-.6,0-1,.4-1,1v6c0,4.4,3.6,8,8,8h4c4.4,0,8-3.6,8-8v-6c0-.6-.4-1-1-1h-11.5" fill="none" stroke="#fff" stroke-linecap="round" stroke-linejoin="round" stroke-width="2"/>
      <path d="M11,7s-.5-2,0-3,0-3,0-3M6,7s-.5-1,0-2,0-2,0-2M16,7s-.5-1,0-2,0-2,0-2" fill="none" stroke="#fff" stroke-linecap="round" stroke-linejoin="round" stroke-width="2"/>
      <path d="M21,11c2,0,4,0,4,3s-2,4.5-4,4.5" fill="none" stroke="#fff" stroke-linecap="round" stroke-linejoin="round" stroke-width="2"/>
    </g>
  </g>
</svg>