<?xml version="1.0" encoding="UTF-8"?>
<svg id="Layer_1" data-name="Layer 1" xmlns="http://www.w3.org/2000/svg" width="26" height="26" viewBox="0 0 26 26">
  <path d="M16,8c-.4,0-.7-.2-.9-.6,0,0-.7-1.5,0-2.9.3-.5,0-1.1,0-1.1-.2-.5,0-1.1.4-1.3.5-.2,1.1,0,1.3.4,0,0,.7,1.5,0,2.9-.3.5,0,1.1,0,1.1.5,1.4-.8,1.5-.8,1.5ZM6,8c-.4,0-.7-.2-.9-.6,0,0-.7-1.5,0-2.9.3-.5,0-1.1,0-1.1-.2-.5,0-1.1.4-1.3.5-.2,1.1,0,1.3.4,0,0,.7,1.5,0,2.9-.3.5,0,1.1,0,1.1.4.9-.4,1.4-.8,1.5ZM11,8c-.4,0-.9-.3-1-.8,0-.4-.6-2.4,0-3.7s0-1.6,0-2.3C9.9.7,10.2,0,10.7,0c.5-.1,1.1.2,1.2.7,0,.4.6,2.4,0,3.7-.6,1.3-.1,1.4,0,2.3s-.5,1.2-.9,1.3Z" fill="#fff"/>
  <path d="M22,17.3c.4-.1.7-.4,1-.7.5-.5,1-1.4,1-2.7s-.1-1-.2-1.3c-.1-.2-.3-.4-.5-.5-.3-.2-.7-.2-1.3-.3v5.5ZM22,10h0c0-.6-.4-1-1-1H1c-.6,0-1,.4-1,1v8c0,4.4,3.6,8,8,8h6c3.9,0,7.2-2.8,7.9-6.6.9-.2,1.9-.6,2.6-1.3,1-1,1.5-2.3,1.5-4.1s0-1.8-.4-2.4c-.3-.6-.9-.9-1.4-1.1-.7-.3-1.5-.4-2.2-.5Z" fill="#fff" fill-rule="evenodd"/>
</svg>