<svg width="26" height="26" viewBox="0 0 26 26" fill="none" xmlns="http://www.w3.org/2000/svg">
<path fill-rule="evenodd" clip-rule="evenodd" d="M13 24.7C13 23.982 13.582 23.4 14.3 23.4H24.7C25.418 23.4 26 23.982 26 24.7C26 25.418 25.418 26 24.7 26H14.3C13.582 26 13 25.418 13 24.7Z" fill="#724333"/>
<path fill-rule="evenodd" clip-rule="evenodd" d="M24.4055 7.92992C26.4982 5.82895 26.4093 3.06997 24.8467 1.38038C24.0846 0.556526 23.0002 0.0302861 21.7718 0.00127005C20.5389 -0.02785 19.2615 0.443647 18.0828 1.4298C18.0828 1.4298 6.70606 12.8445 1.13679 18.4361C0.408755 19.1669 0 20.1566 0 21.1883V23.3899C0 24.8218 1.15955 26 2.60496 26H4.7874C5.82443 26 6.81875 25.587 7.55058 24.8522L24.4055 7.92992ZM19.7691 4.93083C19.2614 4.42316 18.4383 4.42316 17.9306 4.93083C17.423 5.43852 17.423 6.26163 17.9306 6.76932L19.2306 8.06932C19.7382 8.57699 20.5614 8.57699 21.069 8.06932C21.5767 7.56163 21.5767 6.73852 21.069 6.23083L19.7691 4.93083Z" fill="#724333"/>
</svg>
