<svg width="34" height="34" viewBox="0 0 34 34" fill="none" xmlns="http://www.w3.org/2000/svg">
<path d="M20.3243 5H13.9864C8.01101 5 5.02333 5 3.167 6.75735C1.31068 8.51472 1 11.3431 1 17C1 22.6568 1.31068 25.4853 3.167 27.2426C5.02333 29 8.01101 29 13.9864 29H20.3243C26.2996 29 29.2874 29 31.1436 27.2426C33 25.4853 33 22.6568 33 17C33 11.3431 33 8.51472 31.1436 6.75735C30.3651 6.02027 29.3875 5.59234 28.0739 5.3439" stroke="#724333" stroke-width="2" stroke-linecap="round"/>
<path d="M14.0583 23H8" stroke="#724333" stroke-width="2" stroke-linecap="round"/>
<path d="M19.0097 23H18" stroke="#724333" stroke-width="2" stroke-linecap="round"/>
<path d="M1 13H32.6893" stroke="#724333" stroke-width="2" stroke-linecap="round"/>
</svg>
