<svg width="34" height="34" viewBox="0 0 34 34" fill="none" xmlns="http://www.w3.org/2000/svg">
<path d="M20.4087 4H13.5912C7.16359 4 3.94979 4 1.95297 5.78525C0.515252 7.07064 0.112711 8.92011 0 12H34C33.8873 8.92011 33.4848 7.07064 32.0469 5.78525C30.0503 4 26.8363 4 20.4087 4Z" fill="#724333"/>
<path fill-rule="evenodd" clip-rule="evenodd" d="M1.99167 27.9734C3.98335 30 7.18889 30 13.6 30H20.4C26.811 30 30.0167 30 32.0083 27.9734C34 25.9471 34 22.6853 34 16.1622C34 15.3978 34 14.6781 33.9968 14H0.0032129C0 14.6781 0 15.3978 0 16.1622C0 22.6853 0 25.9471 1.99167 27.9734ZM7 23C7 22.5 7.31062 22 8 22H14C14.6894 22 15 22.5 15 23C15 23.5 14.6894 24 14 24H8C7.31062 24 7 23.5 7 23ZM18 22C17.4584 22 17 22.5 17 23C17 23.5 17.4584 24 18 24H19.9423C20.484 24 21 23.5 21 23C21 22.5 20.484 22 19.9423 22H18Z" fill="#724333"/>
</svg>
