<svg width="35" height="34" viewBox="0 0 35 34" fill="none" xmlns="http://www.w3.org/2000/svg">
<path d="M20.9231 6.00003C20.9231 6.00003 15.6866 6.00003 12.2923 6.00003C8.898 6.00003 4 5.63886 2 8.50003C0.94215 10.0134 0.999998 12.2866 0.999998 16.5C0.999998 20.7134 0.94215 22.9867 2 24.5C2.79487 25.637 4.6901 26.4519 6.01538 26.7144M12.2923 27H21.7077C25.3068 27 29.8741 27.4646 32 23.8923C33.2093 21.8602 33 19.325 33 16.5C33 12.2866 33 10.5 32 8.66661C31 6.83321 29.7901 6.64322 27.9846 6.28561" stroke="#724333" stroke-width="2" stroke-linecap="round"/>
<path d="M24 22H27" stroke="#724333" stroke-width="2" stroke-linecap="round"/>
<path d="M7 11H10" stroke="#724333" stroke-width="2" stroke-linecap="round"/>
<path d="M15 22V11C16.3333 11 19.2 11 20 11C21 11 22 12 22 14C22 16 21 17 20 17C19.2 17 15.1667 17 13 17M19.5 20H13" stroke="#724333" stroke-width="2" stroke-linecap="round" stroke-linejoin="round"/>
</svg>
