<svg width="34" height="34" viewBox="0 0 34 34" fill="none" xmlns="http://www.w3.org/2000/svg">
<path fill-rule="evenodd" clip-rule="evenodd" d="M11.9 28C7.12484 28 4.73724 28 3.02212 26.8925C2.27963 26.413 1.64213 25.7969 1.146 25.0795C0 23.422 0 21.1146 0 16.5C0 11.8853 0 9.578 1.146 7.92054C1.64213 7.20301 2.27963 6.58693 3.02212 6.10748C4.73724 5 7.12484 5 11.9 5H22.1C26.8751 5 29.2628 5 30.9779 6.10748C31.7203 6.58692 32.3578 7.20301 32.854 7.92054C34 9.578 34 11.8853 34 16.5C34 21.1146 34 23.422 32.854 25.0795C32.3578 25.7969 31.7203 26.413 30.9779 26.8925C29.2628 28 26.8751 28 22.1 28H11.9ZM7 10C6.44772 10 6 10.4477 6 11C6 11.5523 6.44772 12 7 12H10C10.5523 12 11 11.5523 11 11C11 10.4477 10.5523 10 10 10H7ZM23 22C23 21.4477 23.4477 21 24 21H27C27.5523 21 28 21.4477 28 22C28 22.5523 27.5523 23 27 23H24C23.4477 23 23 22.5523 23 22ZM15 10C14.4477 10 14 10.4477 14 11V16H13C12.4477 16 12 16.4477 12 17C12 17.5523 12.4477 18 13 18H14V19H13C12.4477 19 12 19.4477 12 20C12 20.5523 12.4477 21 13 21H14V22C14 22.5523 14.4477 23 15 23C15.5523 23 16 22.5523 16 22V21H19.5C20.0523 21 20.5 20.5523 20.5 20C20.5 19.4477 20.0523 19 19.5 19H16V18H20C21.8 18 23 16.2667 23 14C23 11.7333 21.8 10 20 10H15ZM20 16H16V12H20C20.2 12 21 12.2667 21 14C21 15.7333 20.2 16 20 16Z" fill="#724333"/>
</svg>
