<svg xmlns="http://www.w3.org/2000/svg" width="34" height="34" viewBox="0 0 34 34">
  <path d="M27.5,22.1l-8.6-5.1,8.6-5.1c.3-.2.5-.5.5-.9s-.2-.7-.5-.9l-10-6c-.3-.2-.7-.2-1,0-.3.2-.5.5-.5.9v10.2l-8.5-5.1c-.3-.2-.7-.2-1,0-.3.2-.5.5-.5.9v12c0,.4.2.7.5.9.3.2.7.2,1,0l8.5-5.1v10.2c0,.4.2.7.5.9.2,0,.3.1.5.1s.4,0,.5-.1l10-6c.3-.2.5-.5.5-.9s-.2-.7-.5-.9ZM19.5,9.6c0-.1.1-.2.2-.1l2.6,1.5c0,0,0,.2,0,.3l-2.8,1.7v-3.3ZM9.9,18.7c0,0-.2,0-.2-.1v-3.1c0-.1.1-.2.2-.1l2.8,1.7-2.8,1.7ZM22.3,23l-2.6,1.5c-.1,0-.2,0-.2-.1v-3.3l2.8,1.7c0,0,0,.2,0,.3Z" fill="#724333"/>
</svg>